# xmcd
#
# Track frame offsets: 
#        150
#        17175
#        33332
#        51167
#        65467
#        83730
#        95465
#        109687
#        124115
#        145145
#        162057
#        180200
#        199725
#        214942
#        232805
#        247410
#        262847
#        280420
#        297977
#        315305
#
# Disc length: 4438 seconds
#
# Revision: 3
# Processed by: cddbd v1.5.2PL0 Copyright (c) Steve Scherf et al.
# Submitted via: ExactAudioCopy v1.3
#
DISCID=17115414
DTITLE=Jimmy Jam and Terry Lewis - The Hit Songs [CD2)
DYEAR=1996
DGENRE=Funk
TTITLE0=Janet Jackson - Nasty
TTITLE1=Human League - Human
TTITLE2=Janet Jackson - When I Think of You
TTITLE3=Herb Alpert - Keep Your Eye on Me
TTITLE4=S.O.S. Band - The Finest
TTITLE5=Robert Palmer - I Didn't Mean to Turn You On
TTITLE6=Janet Jackson - Funny How Time Flies (When You're Having Fun)
TTITLE7=Alexander O'Neal - Fake
TTITLE8=Herb Alpert - Making Love in the Rain (Ft. Janet Jackson and Lis
TTITLE8=a Keith)
TTITLE9=Alexander O'Neal - Sunshine
TTITLE10=New Edition - If It Isn't Love
TTITLE11=Morris Day - Fishnet
TTITLE12=Herb Alpert - Diamonds (Ft. Janet Jackson and Lisa Keith)
TTITLE13=Alexander O'Neal and Cherrelle - Never Knew Love Like This
TTITLE14=New Edition - You're Not My Kinda Girl
TTITLE15=Cherrelle - Everything I Miss at Home
TTITLE16=New Edition - Can You Stand the Rain
TTITLE17=Janet Jackson - Miss You Much
TTITLE18=New Edtion - Boys to Men
TTITLE19=Janet Jackson - Rhythm Nation
EXTD=
EXTT0=
EXTT1=
EXTT2=
EXTT3=
EXTT4=
EXTT5=
EXTT6=
EXTT7=
EXTT8=
EXTT9=
EXTT10=
EXTT11=
EXTT12=
EXTT13=
EXTT14=
EXTT15=
EXTT16=
EXTT17=
EXTT18=
EXTT19=
PLAYORDER=
